P3
# feep.ppm
4 4
255
240  0  0     0  0  0       0  0  0      255  0 255
 0  0  0      0 255  128    0  0  0       0  0  0
 0  0  0      0  0  0       0 255  128    0  0  0
255  0 255    0  0  0       0  0  0       240  0  0  